<?xml version="1.0" standalone="no"?>
<!DOCTYPE svg PUBLIC "-//W3C//DTD SVG 1.1//EN" "http://www.w3.org/Graphics/SVG/1.1/DTD/svg11.dtd" >
<svg xmlns="http://www.w3.org/2000/svg" xmlns:xlink="http://www.w3.org/1999/xlink" version="1.1">
<metadata></metadata>
<defs>
<font id="riot_squad_nfregular" horiz-adv-x="1603" >
<font-face units-per-em="2048" ascent="1638" descent="-410" />
<missing-glyph horiz-adv-x="454" />
<glyph horiz-adv-x="0" />
<glyph unicode="&#xd;" horiz-adv-x="681" />
<glyph unicode=" "  horiz-adv-x="454" />
<glyph unicode="&#x09;" horiz-adv-x="454" />
<glyph unicode="&#xa0;" horiz-adv-x="454" />
<glyph unicode="!" horiz-adv-x="512" d="M49 1337q0 86 60.5 146.5t146.5 60.5q84 0 145.5 -60.5t61.5 -146.5q0 -80 -85 -402.5t-85 -516.5v-29h-74v29q0 195 -85 517t-85 402zM106 149.5q0 61.5 44.5 105.5t105.5 44t105.5 -44t44.5 -105.5t-44.5 -105.5t-105.5 -44t-105.5 44t-44.5 105.5z" />
<glyph unicode="&#x22;" horiz-adv-x="663" d="M49 1439.5q0 61.5 44 105.5t106 44q92 0 133 -82q41 82 133 82q61 0 105 -44t44 -105q0 -115 -57 -209t-166 -98v57q96 0 141 117q-33 -16 -67 -17q-82 0 -125 68q-14 -88 -71.5 -155.5t-143.5 -69.5v57q96 0 141 117q-33 -16 -67 -17q-61 0 -105.5 44t-44.5 105.5z" />
<glyph unicode="#" horiz-adv-x="1019" d="M49 801l29 135h174l49 215h-176l29 137h176l51 234h133l-51 -234h199l51 234h133l-51 -234h176l-29 -137h-176l-49 -215h176l-29 -135h-176l-65 -309h-136l68 309h-199l-67 -309h-133l67 309h-174zM385 936h199l49 215h-199z" />
<glyph unicode="$" horiz-adv-x="1083" d="M49 600h57q0 -141 120 -226t270 -95v380q-78 31 -112 45.5t-107.5 53.5t-110.5 73.5t-68.5 90t-31.5 116.5q0 98 74.5 170t165.5 101.5t190 38.5v168h57v-168h8q63 0 143 -20.5t151 -72t71 -120.5q0 -53 -37 -92t-94.5 -39t-94 40.5t-36.5 94.5q0 84 79 116 q-88 37 -190 37v-338q20 -8 89 -35.5t105.5 -44t96 -51.5t93.5 -69.5t62.5 -88t34.5 -114.5q-6 -162 -153.5 -246t-327.5 -86v-219h-57v221q-174 12 -310.5 112.5t-136.5 266.5zM256 1143q0 -18 8 -34.5t25.5 -31t33 -25t44 -22.5t43 -18t46.5 -18.5t40 -14.5v311 q-100 -16 -170 -53t-70 -94zM553 276q37 0 82 7.5t96 24t85 48t34 74.5q0 14 -4 27.5t-14.5 26t-20.5 22.5t-27.5 20.5t-30 18.5t-34 18t-32.5 15.5t-33.5 14.5t-30.5 13l-70 31v-361z" />
<glyph unicode="%" horiz-adv-x="1169" d="M49 1055v239q0 104 74 178t180 74h27q104 0 179 -73.5t75 -178.5v-239q0 -104 -75 -178t-179 -74h-27q-106 0 -180 73.5t-74 178.5zM51 0l893 1544h166l-893 -1544h-166zM250 934q0 -33 23.5 -56.5t56.5 -23.5q84 0 143 59.5t59 141.5v239q0 82 -59 141.5t-143 59.5 q-33 0 -56.5 -23.5t-23.5 -56.5v-481zM586 252v240q0 104 73.5 177.5t180.5 73.5h26q104 0 179 -73.5t75 -177.5v-240q0 -104 -74.5 -178t-179.5 -74h-26q-106 0 -180 73.5t-74 178.5zM786 131q0 -33 24 -56.5t56 -23.5q84 0 143.5 59.5t59.5 141.5v240q0 82 -59.5 141 t-143.5 59q-33 0 -56.5 -23.5t-23.5 -56.5v-481z" />
<glyph unicode="&#x26;" horiz-adv-x="1353" d="M49 504q0 121 59.5 230.5t167.5 180.5q-94 106 -94 244q0 160 125 272.5t293 112.5q141 0 256 -83t154 -224l-56 -12q-27 111 -124 186.5t-212 75.5q-61 0 -98 -50.5t-37 -113.5v-246q0 -57 45 -95t103 -38h141v-57h-141q-61 0 -104.5 -43t-43.5 -105v-536 q0 -53 41 -100.5t97 -47.5q190 0 331.5 136.5t141.5 316.5q0 82 -33 160h-230v57h474v-57h-183q29 -82 29 -160q0 -211 -166 -359.5t-387 -148.5q-213 0 -381 144.5t-168 359.5z" />
<glyph unicode="'" horiz-adv-x="399" d="M49 1439.5q0 61.5 44 105.5t105.5 44t106.5 -44t45 -105q0 -113 -58.5 -208t-166.5 -99v57q94 0 143 117q-33 -16 -67 -17q-61 0 -106.5 44t-45.5 105.5z" />
<glyph unicode="(" horiz-adv-x="749" d="M49 -27v1282q0 158 112.5 270.5t270.5 112.5h268v-57h-131q-66 0 -113.5 -47t-47.5 -115v-1609q0 -68 47 -115t114 -47h131v-58h-268q-158 0 -270.5 113t-112.5 270z" />
<glyph unicode=")" horiz-adv-x="749" d="M49 -352h131q68 0 115 47t47 115v1609q0 68 -48 115t-114 47h-131v57h268q158 0 270.5 -112.5t112.5 -270.5v-1282q0 -158 -112.5 -270.5t-270.5 -112.5h-268v58z" />
<glyph unicode="*" horiz-adv-x="665" d="M49 1360l35 106l192 -61v201h113v-203l191 61l36 -106l-194 -62l121 -163l-90 -66l-121 164l-117 -164l-94 68l121 163z" />
<glyph unicode="+" horiz-adv-x="1161" d="M49 598v137h463v463h137v-463h463v-137h-461v-461h-137v461h-465z" />
<glyph unicode="," horiz-adv-x="397" d="M49 149.5q0 61.5 44 105.5t105.5 44t105.5 -48.5t44 -109.5q0 -113 -57.5 -204t-165.5 -95v58q96 0 141 116q-33 -16 -67 -16q-61 0 -105.5 44t-44.5 105.5z" />
<glyph unicode="-" horiz-adv-x="540" d="M49 643v90h443v-90h-443z" />
<glyph unicode="." horiz-adv-x="397" d="M49 149.5q0 61.5 44 105.5t105.5 44t105.5 -44t44 -105.5t-44 -105.5t-105.5 -44t-105.5 44t-44 105.5z" />
<glyph unicode="/" horiz-adv-x="933" d="M49 -379l676 2007h160l-676 -2007h-160z" />
<glyph unicode="0" horiz-adv-x="1191" d="M49 516v512q0 213 151.5 364.5t364.5 151.5h62q213 0 364.5 -151.5t151.5 -364.5v-512q0 -213 -151.5 -364.5t-364.5 -151.5h-62q-213 0 -364.5 151.5t-151.5 364.5zM428 254q0 -82 58.5 -140.5t140.5 -58.5q188 0 323 135.5t135 325.5v512q0 188 -135 323.5t-323 135.5 q-82 0 -140.5 -57.5t-58.5 -141.5v-1034z" />
<glyph unicode="1" horiz-adv-x="804" d="M49 1313l8 57q12 -2 35 -2q92 0 169 47t118 129h215v-1489h162v-55h-650v55h162v1299q-78 -43 -174 -43q-31 0 -45 2z" />
<glyph unicode="2" horiz-adv-x="1050" d="M49 0l635 1239q14 33 14 61q0 90 -58 138.5t-140 48.5q-133 0 -238.5 -84t-134.5 -215l-55 12q33 150 154.5 247t275.5 97q174 0 304 -128t130 -312q0 -96 -31 -158l-442 -891h483v320h55v-375h-952z" />
<glyph unicode="3" horiz-adv-x="1030" d="M49 227l47 31q61 -92 159.5 -147.5t209.5 -55.5q61 0 104 44t43 104v608q0 59 -43 103t-104 44h-64v58h105q39 0 65.5 25.5t26.5 62.5v295q0 35 -24.5 61.5t-59.5 26.5q-74 0 -139.5 -40t-102.5 -106l-51 27q43 80 123 128t168 48q156 0 252 -103.5t96 -240.5 q0 -158 -125 -258q113 -70 179.5 -186.5t66.5 -247.5q0 -211 -150.5 -359.5t-365.5 -148.5q-125 0 -234.5 60.5t-181.5 166.5z" />
<glyph unicode="4" horiz-adv-x="1259" d="M49 674l365 870h155l-348 -813h397v813h330v-813h262v-57h-262v-619h156v-55h-633v55h150v619h-572z" />
<glyph unicode="5" horiz-adv-x="1030" d="M49 227l47 31q61 -92 160.5 -147.5t208.5 -55.5q61 0 104 44t43 104v608q0 59 -43 103t-102 44h-389v586h704v-235h-57v178h-461v-471h207q211 0 360.5 -149.5t149.5 -358.5q0 -211 -150.5 -359.5t-365.5 -148.5q-125 0 -234.5 60.5t-181.5 166.5z" />
<glyph unicode="6" horiz-adv-x="1146" d="M49 516v512q0 215 153.5 365.5t368.5 150.5q233 0 392 -170l-43 -37q-139 150 -347 150q-61 0 -105 -43t-44 -105v-346q70 20 147 21q213 0 370 -146.5t157 -359.5t-156 -360.5t-369 -147.5q-215 0 -369.5 150.5t-154.5 365.5zM424 203q0 -59 44 -103.5t103 -44.5 q190 0 329.5 131t139.5 321.5t-140 320.5t-331 130q-72 0 -145 -22v-733z" />
<glyph unicode="7" horiz-adv-x="1144" d="M49 1198v346h1047l-478 -1544h-362l457 1487h-609v-289h-55z" />
<glyph unicode="8" horiz-adv-x="1202" d="M49 506q0 123 62.5 230.5t167.5 178.5q-96 106 -97 244q0 168 131 275.5t308 107.5q152 0 275.5 -111.5t123.5 -271.5q0 -135 -96 -244q104 -72 166.5 -179t62.5 -230q0 -217 -166 -361.5t-385 -144.5q-221 0 -387 144.5t-166 361.5zM485 203q0 -55 41 -101.5t95 -46.5 q186 0 331.5 133.5t145.5 317.5q0 117 -64.5 218t-169.5 163h-229q-61 0 -105.5 -43t-44.5 -105v-536zM485 1077q0 -57 45 -95t103 -38h239q91 90 91 215q0 131 -103.5 229.5t-236.5 98.5q-63 0 -100.5 -49t-37.5 -115v-246z" />
<glyph unicode="9" horiz-adv-x="1144" d="M49 1036q0 211 155.5 359.5t368.5 148.5q215 0 369 -150.5t154 -365.5v-512q0 -215 -154 -365.5t-371 -150.5q-231 0 -387 168l41 39q139 -152 348 -152q59 0 103.5 43t44.5 105v346q-68 -20 -146 -21q-215 0 -370.5 147.5t-155.5 360.5zM104 1036q0 -190 140.5 -320 t330.5 -130q72 -1 146 22v731q0 59 -44 103.5t-104 44.5q-190 0 -329.5 -131t-139.5 -320z" />
<glyph unicode=":" horiz-adv-x="397" d="M49 149.5q0 61.5 44 105.5t105.5 44t105.5 -44t44 -105.5t-44 -105.5t-105.5 -44t-105.5 44t-44 105.5zM49 600.5q0 61.5 44 105.5t105.5 44t105.5 -44t44 -105.5t-44 -105.5t-105.5 -44t-105.5 44t-44 105.5z" />
<glyph unicode=";" horiz-adv-x="401" d="M49 149.5q0 61.5 44 105.5t105.5 44t105.5 -48.5t44 -109.5q0 -113 -57.5 -204t-165.5 -95v58q96 0 141 116q-33 -16 -67 -16q-61 0 -105.5 44t-44.5 105.5zM53 600.5q0 61.5 44 105.5t105.5 44t105.5 -44t44 -105.5t-44 -105.5t-105.5 -44t-105.5 44t-44 105.5z" />
<glyph unicode="&#x3c;" horiz-adv-x="1138" d="M49 690v139l989 416l52 -125l-857 -360l857 -359l-52 -125z" />
<glyph unicode="=" horiz-adv-x="1161" d="M49 365v135h1063v-135h-1063zM49 823v138h1063v-138h-1063z" />
<glyph unicode="&#x3e;" horiz-adv-x="1136" d="M49 401l854 359l-854 360l49 125l989 -416v-139l-987 -414z" />
<glyph unicode="?" horiz-adv-x="897" d="M49 1157q4 158 119 272.5t270.5 114.5t282.5 -122.5t127 -276.5q0 -86 -38 -161t-91 -131t-107.5 -112.5t-94.5 -132.5t-44 -162h-55q-8 55 -8 113q0 139 86 365.5t86 380.5q0 84 -37 133t-109 49q-135 0 -231 -97.5t-101 -234.5zM305 149.5q0 61.5 43 105.5t104.5 44 t105.5 -44t44 -105.5t-44 -105.5t-105.5 -44t-104.5 44t-43 105.5z" />
<glyph unicode="@" horiz-adv-x="1542" d="M49 772.5q0 319.5 227.5 545.5t544.5 226q268 0 470 -180t202 -444q0 -141 -49 -269.5t-156.5 -218.5t-251.5 -90q-88 0 -143 61q-111 -61 -229 -61q-139 0 -243 99.5t-104 250.5q0 199 155 353.5t351 154.5q76 0 142 -26l6 26h254l-158 -799q176 16 272.5 173t96.5 346 q0 242 -183.5 404.5t-429.5 162.5q-295 0 -506 -210t-211 -505q0 -297 210 -507t505 -210q285 0 494 199l41 -41q-223 -213 -533 -213q-319 0 -546.5 226.5t-227.5 546zM551 508q0 -47 31.5 -78t83.5 -31q100 0 196 52q-16 31 -16 73q0 16 4 45q16 82 33.5 173.5t38 202 t32.5 171.5q-55 29 -131 29q-63 0 -115.5 -45t-64.5 -107q-92 -475 -92 -485z" />
<glyph unicode="A" d="M49 0v55h189l374 1489h353l448 -1489h141v-55h-636v55h151l-108 365h-574l-92 -365h184v-55h-430zM401 477h541l-295 979z" />
<glyph unicode="B" horiz-adv-x="1380" d="M49 0v55h174v1432h-166v57h750q123 0 197.5 -83t74.5 -193q0 -156 -135 -232q168 -47 277.5 -188.5t109.5 -319.5q0 -217 -155.5 -372.5t-372.5 -155.5h-754zM530 55h271q195 0 335 139.5t140 334t-139.5 332.5t-333.5 138h-273v-944zM530 1057h277q90 0 152.5 63.5 t62.5 151.5q0 90 -62.5 152.5t-150.5 62.5h-279v-430z" />
<glyph unicode="C" horiz-adv-x="1409" d="M49 772q0 225 111.5 404.5t288 272.5t376.5 93q219 0 406 -117v123h55v-448h-55v258q-186 129 -410 129q-139 0 -239.5 -100.5t-100.5 -239.5v-750q0 -139 97.5 -240.5t234.5 -101.5q307 0 500 293l47 -31q-211 -317 -549 -317q-315 0 -538.5 227.5t-223.5 544.5z" />
<glyph unicode="D" horiz-adv-x="1441" d="M49 0v55h158v1432h-158v57h567q319 0 548 -226t229 -545.5t-227.5 -546t-547.5 -226.5h-569zM514 55h102q297 0 507 210t210 507t-210 506t-505 209h-104v-1432z" />
<glyph unicode="E" horiz-adv-x="1206" d="M49 0v55h174v1432h-174v57h1108v-307h-57v250h-568v-420h304v-57h-304v-955h566v437h59v-492h-1108z" />
<glyph unicode="F" horiz-adv-x="1204" d="M49 0v55h172v1432h-172v57h1106v-307h-57v250h-566v-420h302v-57h-302v-955h168v-55h-651z" />
<glyph unicode="G" horiz-adv-x="1406" d="M49 772q0 225 111.5 404.5t288 272.5t376.5 93q219 0 406 -117v123h55v-448h-55v258q-186 129 -410 129q-139 0 -239.5 -100.5t-100.5 -239.5v-750q0 -139 97.5 -240.5t234.5 -101.5q301 0 490 283v405h-371v58h426v-482q-215 -319 -541 -319q-315 0 -541.5 227.5 t-226.5 544.5z" />
<glyph unicode="H" horiz-adv-x="1511" d="M49 0v55h178v1432h-178v57h662v-57h-176v-430h444v430h-178v57h661v-57h-176v-1432h176v-55h-661v55h178v944h-444v-944h176v-55h-662z" />
<glyph unicode="I" horiz-adv-x="757" d="M49 0v55h174v1432h-174v57h660v-57h-174v-1432h174v-55h-660z" />
<glyph unicode="J" horiz-adv-x="970" d="M49 -188l23 51q76 -35 174 -35t180 37v1622h-174v57h670v-57h-172v-1213q0 -207 -148.5 -355t-355.5 -148q-96 0 -197 41z" />
<glyph unicode="K" horiz-adv-x="1562" d="M49 0v55h174v1432h-174v57h660v-57h-177v-563l437 563h-103v57h381v-57h-209l-319 -416q29 4 45 4q88 0 158.5 -49t105.5 -131l332 -811q74 45 100 113l53 -23q-35 -80 -107.5 -127t-160.5 -47q-90 0 -160.5 48t-103.5 130l-330 807l-119 -154v-776h177v-55h-660z" />
<glyph unicode="L" horiz-adv-x="1206" d="M49 0v55h174v1432h-174v57h633v-57h-150v-1432h566v437h59v-492h-1108z" />
<glyph unicode="M" horiz-adv-x="1677" d="M49 0v55h174v1432h-174v57h508l397 -1024l402 1024h188v-57h-135v-1432h219v-55h-444v55h168v1323l-371 -946h-51l-398 1020v-1397h175v-55h-658z" />
<glyph unicode="N" horiz-adv-x="1538" d="M49 0v55h174v1432h-174v57h473l690 -1405v1348h-168v57h445v-57h-221v-1432h137v-55h-186l-684 1391v-1336h167v-55h-653z" />
<glyph unicode="O" horiz-adv-x="1642" d="M49 772.5q0 319.5 226.5 549.5t545.5 230q317 0 544.5 -230t227.5 -549.5t-227 -550t-545 -230.5q-319 0 -545.5 230.5t-226.5 550zM479 389q0 -137 99.5 -239.5t240.5 -102.5q137 0 239.5 100.5t102.5 241.5v766q0 137 -101.5 238.5t-240.5 101.5q-135 0 -237.5 -100.5 t-102.5 -239.5v-766z" />
<glyph unicode="P" horiz-adv-x="1380" d="M49 1487v57h752q219 0 374.5 -155.5t155.5 -372.5t-155.5 -373t-372.5 -156h-273v-432h250v-55h-723v55h166v1432h-174zM530 543h275q193 0 331 139t138 334q0 197 -138.5 334t-332.5 137h-273v-944z" />
<glyph unicode="Q" horiz-adv-x="1644" d="M49 772.5q0 319.5 227.5 549.5t542.5 230q322 0 549 -229t227 -551q0 -217 -111.5 -402.5t-295.5 -285.5l196 -195q12 23 13 48h59q0 -68 -48 -113t-112 -45q-25 0 -48 9t-56 38t-52.5 47t-67.5 67.5t-71 71.5q-84 -20 -178 -20q-317 0 -545.5 230.5t-228.5 550zM479 389 q0 -145 103.5 -243.5t242.5 -98.5q57 0 119 23l-211 209q69 65 137 65h2q57 0 103 -45l117 -117q69 92 69 207l2 766q0 139 -100 239.5t-240 100.5q-141 0 -242.5 -100.5t-101.5 -239.5v-766z" />
<glyph unicode="R" horiz-adv-x="1499" d="M49 0v55h162v1432h-162v57h750q113 0 192.5 -80t79.5 -192q0 -94 -58.5 -168t-148.5 -96q72 -49 103 -127l331 -797q70 41 101 113l51 -23q-33 -82 -104.5 -128t-159.5 -46t-160 48t-106 130l-342 821h-56v-944h162v-55h-635zM522 1057h277q90 0 152.5 63.5t62.5 151.5 t-62.5 151.5t-152.5 63.5h-277v-430z" />
<glyph unicode="S" horiz-adv-x="1218" d="M49 512l57 -2q0 -205 142.5 -333t349.5 -128q135 0 249 60.5t114 166.5q0 49 -24 92.5t-80 86.5t-82.5 60t-98.5 56q-16 10 -25 15q-27 14 -102.5 52t-125.5 64.5t-120 75.5t-111.5 95.5t-73.5 113t-32 139.5q0 188 169 307t396 119q51 0 117 -15t130.5 -43t108.5 -78 t44 -109q0 -53 -36 -92t-93 -39q-59 0 -95 39.5t-36 93.5q0 96 94 123q-106 63 -240 63q-43 0 -95 -9t-111.5 -31.5t-99.5 -69t-40 -109.5q0 -47 29.5 -94t70.5 -70l496 -266q119 -63 193.5 -172t80.5 -250q0 -141 -92 -242.5t-218 -144.5t-261 -43q-231 0 -390 144.5 t-159 373.5z" />
<glyph unicode="T" horiz-adv-x="1267" d="M49 1167v377h1170v-387h-56v330h-372v-1432h174v-55h-660v55h174v1432h-375v-320h-55z" />
<glyph unicode="U" horiz-adv-x="1513" d="M49 1487v57h629v-57h-154v-1213q0 -98 70 -164.5t168 -66.5q213 0 361.5 143.5t148.5 364.5v936h-182v57h374v-57h-137v-936q0 -266 -168 -413.5t-397.5 -147.5t-396 147.5t-166.5 413.5v936h-150z" />
<glyph unicode="V" horiz-adv-x="1441" d="M49 1487v57h189q109 0 197.5 -65.5t115.5 -169.5l301 -1209l330 1387h-197v57h408v-57h-154l-350 -1487h-369l-387 1487h-84z" />
<glyph unicode="W" horiz-adv-x="1970" d="M49 1487v57h189q104 0 196 -67.5t117 -169.5l272 -1143l107 459l-225 864h-82v57h188q104 0 196.5 -67.5t116.5 -169.5l275 -1145l311 1325h-194v57h405v-57h-154l-350 -1487h-325l-131 506l-117 -506h-326l-387 1487h-82z" />
<glyph unicode="X" horiz-adv-x="1550" d="M49 1487v57h660v-57h-156l272 -512q225 336 336 506q41 61 113 61q51 0 91 -36t40 -93q0 -61 -39 -96t-92 -35q-90 0 -123 82l-295 -446l459 -863h186v-55h-659v55h127l-303 574l-285 -428q-135 -201 -287 -201v55q125 0 240 176l301 455l-428 801h-158z" />
<glyph unicode="Y" horiz-adv-x="1439" d="M49 1487v57h189q213 0 311 -233l285 -690l337 866h-186v57h406v-57h-158l-399 -1008v-424h176v-55h-660v55h174v434l-393 998h-82z" />
<glyph unicode="Z" horiz-adv-x="1144" d="M49 0l643 1487h-395q25 -33 25 -74q0 -55 -38 -94t-93.5 -39t-94.5 39t-39 94t41 93t97 38h868l-653 -1489h446q-25 39 -25 74q0 53 41 93t95 40q51 0 90 -39t39 -92q0 -55 -39 -93t-94 -38h-914z" />
<glyph unicode="[" horiz-adv-x="532" d="M49 -348v1892h434v-57h-123v-1780h123v-55h-434z" />
<glyph unicode="\" horiz-adv-x="933" d="M49 1628h160l676 -2007h-160z" />
<glyph unicode="]" horiz-adv-x="532" d="M49 -293h123v1780h-123v57h434v-1892h-434v55z" />
<glyph unicode="^" horiz-adv-x="1048" d="M49 791l410 751h129l411 -751l-116 -66l-359 653l-358 -653z" />
<glyph unicode="_" horiz-adv-x="1024" d="M-16 -14h1056v-90h-1056v90z" />
<glyph unicode="`" horiz-adv-x="454" d="M49 1266l43 164l314 -179l-21 -75z" />
<glyph unicode="a" horiz-adv-x="1429" d="M49 565q0 225 164 394t389 169q102 0 203 -41v41h315v-1071q106 12 155.5 90t49.5 175h55q0 -131 -75.5 -226.5t-210.5 -95.5q-123 0 -203 84q-129 -84 -289 -84q-225 0 -389 169t-164 396zM397 260q0 -84 60.5 -144.5t144.5 -60.5q137 0 252 72q-49 72 -49 160v741 q-94 43 -205 43q-84 0 -143.5 -59.5t-59.5 -143.5v-608z" />
<glyph unicode="b" horiz-adv-x="1226" d="M49 1487v57h105q119 0 203.5 -84t84.5 -203v-180q104 49 213 49q211 0 367 -163.5t156 -399.5q0 -227 -153 -395t-378 -168q-217 0 -368.5 123t-151.5 336q0 57 -1 170.5t-1 171.5q0 115 1 344t1 342h-78zM442 260q0 -82 58.5 -143.5t138.5 -61.5q90 0 153.5 56.5 t63.5 148.5v608q0 86 -61.5 145.5t-145.5 59.5q-86 0 -146.5 -60.5t-60.5 -144.5v-608z" />
<glyph unicode="c" horiz-adv-x="1048" d="M49 563q0 227 163 395t388 168q137 0 258 -56t121 -157q0 -51 -36 -91t-95 -40q-57 0 -94 41t-37 92q0 82 76 117q-76 41 -164 41q-98 0 -166 -51t-68 -154v-608q0 -84 61.5 -144.5t145.5 -60.5q207 0 356 156l41 -39q-164 -174 -397 -174q-221 0 -387 168t-166 397z" />
<glyph unicode="d" horiz-adv-x="1308" d="M49 563q0 236 165 400.5t388 164.5q90 0 189 -34q0 16 -1.5 51t-1.5 53q0 176 86 262q51 53 106.5 68.5t135.5 15.5h60v-57h-70v-1430q86 10 144.5 76t58.5 154v35h57v-35q0 -123 -88 -205t-203 -82q-111 0 -194 78q-131 -78 -277 -78q-223 0 -389 162t-166 401zM397 260 q0 -84 60.5 -144.5t144.5 -60.5q129 0 242 66q-53 76 -53 166v747q-90 37 -191 37q-84 0 -143.5 -60.5t-59.5 -142.5v-608z" />
<glyph unicode="e" horiz-adv-x="1165" d="M49 563q0 231 162 398t391 167q252 0 377 -152t137 -390h-719v-326q0 -84 60.5 -144.5t144.5 -60.5q133 0 254 67.5t186 182.5l52 -29q-74 -127 -207 -201.5t-283 -74.5q-231 0 -393 167t-162 396zM397 641h412v227q0 84 -60.5 143.5t-144.5 59.5t-145.5 -60.5 t-61.5 -142.5v-227z" />
<glyph unicode="f" horiz-adv-x="792" d="M49 1071v57h115v129q0 119 85 203t203.5 84t202.5 -84l-39 -41q-59 59 -135 68v-359h262v-57h-262v-1071h-317v1071h-115z" />
<glyph unicode="g" horiz-adv-x="1239" d="M49 563q0 231 161 398t390 167q150 0 281 -77q51 49 107 63t138 14h64v-57h-84v-973q0 -201 -144.5 -345t-345.5 -144q-199 0 -348 143l41 41q125 -129 305 -129q92 0 177 39v330q-98 -35 -187 -35q-223 0 -389 165t-166 400zM395 260q0 -84 60.5 -144.5t144.5 -60.5 q98 0 188 39v746q1 92 54 168q-106 63 -242 63q-84 0 -144.5 -60.5t-60.5 -142.5v-608z" />
<glyph unicode="h" horiz-adv-x="1261" d="M49 1487v57h101q117 0 204.5 -85t87.5 -202v-278q47 70 122 109.5t159 39.5q137 0 236.5 -99t99.5 -236v-736q86 10 144.5 76t58.5 154v35h57q0 -147 -78 -234.5t-209 -87.5q-115 0 -202 81t-87 206v635q0 47 -28.5 90t-71.5 43q-80 0 -140.5 -86t-60.5 -170v-799h-319 v1487h-74z" />
<glyph unicode="i" horiz-adv-x="643" d="M49 1071v57h103q119 0 203.5 -85t84.5 -203v-783q86 10 144.5 76t58.5 154v35h57v-35q0 -119 -85 -203t-203.5 -84t-202.5 84t-84 203v784h-76zM119 1374.5q0 69.5 49 119.5t118.5 50t119 -50t49.5 -119.5t-49.5 -119t-119 -49.5t-118.5 49.5t-49 119z" />
<glyph unicode="j" horiz-adv-x="507" d="M-172 -82l45 45q18 -66 71.5 -112t121.5 -54v1043q0 119 83.5 203.5t204.5 84.5h105v-57h-78v-1042q0 -127 -87 -208t-204 -81q-80 0 -152.5 47t-109.5 131zM90 1374q0 72 49 121t121 49q70 0 119 -50t49 -119.5t-49 -119t-119 -49.5t-120 49.5t-50 118.5z" />
<glyph unicode="k" horiz-adv-x="1249" d="M49 1487v57h101q117 0 204.5 -85t87.5 -202v-657l449 475q49 53 123 53q66 0 116 -47l-38 -39q-35 29 -76 29q-49 0 -84 -35l-129 -135l295 -831q68 25 110.5 84t42.5 133v35h56q0 -139 -77 -230.5t-208 -91.5q-90 0 -167 52t-107 145l-168 469l-138 -148v-518h-321v1487 h-72z" />
<glyph unicode="l" horiz-adv-x="643" d="M49 1487v57h103q119 0 203.5 -84t84.5 -203v-1200q86 10 144.5 76t58.5 154v35h57v-35q0 -119 -85 -203t-203.5 -84t-202.5 84t-84 203v1200h-76z" />
<glyph unicode="m" horiz-adv-x="1753" d="M49 1071v57h39q53 0 88 -4t80 -18t81 -50t64 -91q37 78 114 119.5t167 41.5t167 -42t116 -119q68 163 250 163h2q137 0 235 -95t98 -240v-736q88 10 146.5 76t58.5 154v35h55q0 -143 -76.5 -232.5t-207.5 -89.5q-115 0 -203 81t-88 206v635q0 47 -27.5 90t-72.5 43 q-70 0 -107 -87t-37 -163v-805h-315v1071q-96 0 -171 -71.5t-75 -159.5v-840h-315v1071h-66z" />
<glyph unicode="n" horiz-adv-x="1271" d="M49 1071v57h117q88 0 161.5 -50t106.5 -134q41 84 123 134t176 50q139 0 237.5 -99t98.5 -236v-736q86 10 144.5 76t58.5 154v35h57q0 -143 -74.5 -232.5t-212.5 -89.5q-121 0 -204.5 84t-83.5 203v635q0 47 -28 90t-73 43q-82 0 -141 -89t-59 -173v-793h-316v1071h-88z " />
<glyph unicode="o" horiz-adv-x="1222" d="M49 563q0 231 166 402.5t397.5 171.5t396.5 -170.5t165 -403.5q0 -231 -165 -401t-396.5 -170t-397.5 169t-166 402zM408 252q0 -84 59 -144.5t143 -60.5t144.5 60.5t60.5 144.5v625q0 84 -60.5 143t-144.5 59q-82 0 -142 -60.5t-60 -141.5v-625z" />
<glyph unicode="p" horiz-adv-x="1191" d="M49 1071v57h101q100 0 182 -65q129 65 256 65h4q229 0 390 -166.5t161 -398t-161 -397.5t-390 -166q-80 0 -150 20v-430h-321v1481h-72zM375 1020q68 -84 67 -180v-760q74 -25 152 -25q84 0 143.5 60.5t59.5 144.5v608q0 84 -60.5 143.5t-144.5 59.5q-117 0 -217 -51z " />
<glyph unicode="q" horiz-adv-x="1191" d="M49 563.5q0 231.5 161 398t390 166.5q129 0 260 -65q83 65 219 65h4h60v-57h-72v-1481h-321v430q-70 -20 -150 -20q-229 0 -390 166t-161 397.5zM395 260q0 -84 59.5 -144.5t143.5 -60.5q78 0 152 25v760q-1 96 67 180q-100 51 -217 51q-84 0 -144.5 -59.5t-60.5 -143.5 v-608z" />
<glyph unicode="r" horiz-adv-x="1007" d="M49 1071v57h103q86 0 156.5 -47t107.5 -127q43 88 126 138.5t177 50.5q100 0 169.5 -41t69.5 -119q0 -57 -40.5 -94t-92.5 -37q-53 0 -92 40t-39 91q0 63 54 104h-23q-104 0 -192.5 -72.5t-88.5 -172.5v-842h-319v1071h-76z" />
<glyph unicode="s" horiz-adv-x="1085" d="M49 375h57q0 -147 134.5 -236.5t304.5 -89.5q23 0 57.5 4t98 16.5t106.5 47.5t43 88q0 84 -227 176q-10 4 -85 32.5t-121 48t-121 61.5t-119 81t-77.5 97.5t-33.5 121.5q0 139 143 222t358 83q119 0 239 -58t120 -152q0 -53 -37 -92.5t-94 -39.5q-59 0 -95 41t-36 95 q0 82 79 116q-88 37 -192 37q-27 0 -62.5 -4t-95 -16.5t-98.5 -45t-39 -81.5q0 -31 27.5 -58.5t60.5 -42.5q66 -29 213.5 -95t226.5 -101q104 -45 178 -128.5t74 -185.5q0 -137 -139 -230t-356 -93q-209 0 -350.5 110.5t-141.5 270.5z" />
<glyph unicode="t" horiz-adv-x="747" d="M49 1487v57h103q119 0 203.5 -84t84.5 -203v-129h144v-57h-144v-1014q86 10 144.5 76t58.5 154v35h55v-35q0 -119 -84 -203t-202.5 -84t-203.5 84t-85 203v784h-70v57h70v359h-74z" />
<glyph unicode="u" horiz-adv-x="1249" d="M49 1071v57h96q119 0 203 -85t84 -203v-633q0 -47 28.5 -90t69.5 -43q98 0 150.5 100t52.5 221v733h316v-1071q86 10 144 76t58 154v35h56q0 -143 -76 -232.5t-211 -89.5q-88 0 -162 48t-106 134q-43 -84 -124 -133t-175 -49q-137 0 -236.5 98.5t-99.5 237.5v735h-68z " />
<glyph unicode="v" horiz-adv-x="1202" d="M49 1071v57h164q96 0 173 -58t103 -150q43 -152 124 -432.5t114 -395.5l242 760q-66 8 -113 53t-47 105q0 53 37 93t94 40q55 0 93 -40t38 -91q0 -33 -27 -105q68 10 113 61.5t45 121.5v28h58v-28q0 -96 -68 -167t-166 -75l-270 -848h-324q-76 252 -315 1071h-68z" />
<glyph unicode="w" horiz-adv-x="1628" d="M49 1071v57h164q94 0 176 -59t103 -149l194 -822l82 256l-182 717h-68v57h164q94 0 175 -59t101 -149l197 -824l242 756q-68 2 -115 49t-47 109q0 53 38 93t95 40q53 0 91 -40t38 -91q0 -27 -24 -105q78 12 116.5 69.5t38.5 141.5h58q0 -113 -60.5 -189.5t-171.5 -80.5 l-270 -848h-326l-63 250l-80 -250h-326q-203 805 -272 1071h-68z" />
<glyph unicode="x" horiz-adv-x="1173" d="M49 1071v57h207q160 0 266 -165l144 -228l202 328q37 63 115 63q53 0 93 -35.5t40 -93.5q0 -61 -39 -96t-94 -35q-86 0 -119 78l-166 -262l426 -682h-329l-258 420q-12 -20 -48 -83t-57.5 -96.5t-61.5 -86t-75 -81t-84 -51t-100 -22.5v55q131 0 239 174q121 193 154 244 l-369 598h-86z" />
<glyph unicode="y" horiz-adv-x="1097" d="M49 1071v57h96q119 0 204 -85t85 -203v-633q0 -47 27.5 -87t70.5 -40q57 0 99.5 33.5t63 87t29.5 104.5t9 101v722h316v-1030q0 -201 -144.5 -345t-345.5 -144t-344 143l39 41q125 -129 303 -129q92 0 176 39v447q-47 -70 -121.5 -110t-156.5 -40q-139 0 -237.5 98.5 t-98.5 237.5v735h-70z" />
<glyph unicode="z" horiz-adv-x="1107" d="M49 0l567 1071h-307q25 -35 25 -76q0 -53 -37 -92t-94 -39q-53 0 -93 39t-40 94.5t40 93t95 37.5h848l-582 -1073h350q-24 36 -24 73q0 56 35.5 95t93.5 39q55 0 94 -39t39 -92t-38 -92t-93 -39h-879z" />
<glyph unicode="{" horiz-adv-x="653" d="M49 559v59h49v435q0 207 148.5 355t357.5 148v-57q-96 0 -180 -37v-751q0 -80 -102 -121q100 -43 100 -123v-752q82 -37 182 -37v-57q-207 0 -355.5 148.5t-148.5 355.5v434h-51z" />
<glyph unicode="|" horiz-adv-x="331" d="M49 -410v2048h234v-2048h-234z" />
<glyph unicode="}" horiz-adv-x="651" d="M49 -322q98 0 180 37v752q0 80 103 123q-102 41 -103 121v751q-84 37 -180 37v57q207 0 355.5 -148t148.5 -355v-435h49v-59h-49v-434q0 -207 -148.5 -355.5t-355.5 -148.5v57z" />
<glyph unicode="~" horiz-adv-x="1087" d="M49 774q123 156 313 156q84 0 189.5 -68.5t167.5 -68.5q117 0 199 102l120 -174q-131 -164 -319 -164q-84 0 -189.5 70.5t-167.5 70.5q-117 0 -198 -100z" />
<glyph unicode="&#xa1;" horiz-adv-x="512" d="M49 -203q0 80 85 402.5t85 517.5v28h74v-28q0 -195 85 -517.5t85 -402.5q0 -86 -60.5 -146.5t-146.5 -60.5q-84 0 -145.5 60.5t-61.5 146.5zM106 985.5q0 61.5 44.5 105.5t105.5 44t105.5 -44t44.5 -105.5t-44.5 -105.5t-105.5 -44t-105.5 44t-44.5 105.5z" />
<glyph unicode="&#xa2;" horiz-adv-x="1048" d="M49 784.5q0 221.5 150.5 386t371.5 177.5v168h56v-168q119 -6 236.5 -65.5t117.5 -147.5q0 -57 -41 -94t-94 -37q-51 0 -90 38.5t-39 90.5q0 84 76 120q-78 33 -166 39v-1016q195 10 331 156l41 -39q-156 -162 -372 -172v-221h-56v221q-221 12 -371.5 177t-150.5 386.5z M397 481q0 -76 50 -134t124 -68v1011q-74 -10 -124 -68.5t-50 -134.5v-606z" />
<glyph unicode="&#xa3;" horiz-adv-x="1130" d="M49 0v55h172v652h-160v57h160v493q0 119 84 203t203 84t204 -84t85 -203v-34h-58v34q0 86 -58 153t-144 77v-723h208v-57h-208v-420q0 -143 -117 -232h375q94 0 162.5 69t68.5 163h55q0 -119 -84 -203t-202 -84h-746z" />
<glyph unicode="&#xa4;" horiz-adv-x="1484" d="M49 676l35 57h109q0 4 -1.5 15.5t-1.5 17.5q0 25 5 78h-136l33 55h111q49 291 268 467t494 176q223 0 409 -117v123h56v-448h-56v258q-182 129 -387 129q-164 0 -264 -101q-66 -66 -87.5 -138t-21.5 -185q0 -27 1 -82t1 -82h820l-35 -55h-785v-111h717l-33 -57h-684v-279 q0 -137 101.5 -239.5t238.5 -102.5q242 0 418 189v231h56v-446h-56v135q-178 -164 -422 -164q-270 0 -493 193.5t-260 482.5h-150z" />
<glyph unicode="&#xa5;" horiz-adv-x="1470" d="M49 1487v57h676v-57h-176l323 -613l324 613h-223v57h448v-57h-161l-363 -688v-39h305v-55h-305v-113h305v-55h-305v-482h158v-55h-635v55h160v482h-304v55h304v113h-304v55h304v55l-355 672h-176z" />
<glyph unicode="&#xa6;" horiz-adv-x="333" d="M49 -383v817h236v-817h-236zM49 729v817h236v-817h-236z" />
<glyph unicode="&#xa7;" horiz-adv-x="4444" d="M55 0v1536h262v-1536h-262zM561 565q25 -98 71 -185t110.5 -160t146.5 -129t174 -91h575q92 35 174 91t146.5 129t111 160t70.5 185h-250q-31 -82 -84 -151.5t-123.5 -119.5t-155.5 -78t-177.5 -28t-176 28t-154.5 78t-124 119.5t-84 151.5h-250zM561 604v314h195v-62 h-115v-68h102v-65h-104v-119h-78zM561 958h252q31 82 83 152t123 120t154.5 77.5t176 27.5t177.5 -27.5t155.5 -77.5t123 -120t82.5 -152h252q-25 102 -75 193.5t-120.5 166.5t-157.5 130t-185 88h-502q-98 -33 -185.5 -88t-158 -130t-120.5 -166t-75 -194zM1174 745.5 q0 -57.5 25.5 -90t55.5 -49.5q37 -20 84 -24q49 4 88 24q35 16 63 51t28 100.5t-26 100.5t-56 51q-37 21 -80 25q-29 0 -60.5 -8t-58.5 -28.5t-45 -57.5t-18 -94.5zM1253 752q0 31 9.5 51t23.5 32.5t31.5 16.5t32.5 4q23 -2 43 -12q16 -10 30.5 -30.5t14.5 -55.5 q0 -37 -15.5 -56.5t-33.5 -29.5q-23 -11 -48 -13q-25 4 -45 15q-16 10 -29.5 27.5t-13.5 50.5zM2060 604v314h90l146 -209v209h78v-314h-72l-166 213v-213h-76zM2306 565q49 -197 183 -345t321 -220h575q186 72 319.5 220.5t182.5 344.5h-252q-31 -82 -83 -151.5 t-122.5 -119.5t-155.5 -78t-177.5 -28t-177.5 28t-155.5 78t-122.5 119.5t-83 151.5h-252zM2306 958h252q31 82 83 152t122.5 120t155.5 77.5t177.5 27.5t177.5 -27.5t155.5 -77.5t122.5 -120t83 -152h252q-25 102 -75 193.5t-120.5 166.5t-157.5 130t-188 88h-499 q-100 -33 -187.5 -88t-158 -130t-120.5 -166t-75 -194zM2984 842v76h235v-78h-65v-236h-105v238h-65zM3656 827q0 27 12 45.5t31.5 29.5t44 15.5t47.5 4.5q49 0 80 -13l-6 -63q-29 14 -68 14q-16 0 -35.5 -4t-19.5 -25q0 -18 22.5 -25t50 -16.5t50 -27t22.5 -60.5 q0 -59 -41 -79.5t-94 -20.5q-23 0 -47.5 2t-46.5 10l8 68q16 -8 37.5 -14t48.5 -6q20 0 35.5 6t15.5 24q0 20 -23.5 28.5t-51 18t-50 27.5t-22.5 61zM4137 0v1536h250v-1536h-250z" />
<glyph unicode="&#xa8;" horiz-adv-x="526" d="M49 1270q0 39 27.5 66.5t66.5 27.5t67 -27.5t28 -66.5t-28 -66.5t-67 -27.5t-66.5 27.5t-27.5 66.5zM291 1270q0 39 26.5 66.5t65.5 27.5t66.5 -26.5t27.5 -67.5t-27.5 -67.5t-66.5 -26.5t-65.5 27.5t-26.5 66.5z" />
<glyph unicode="&#xa9;" horiz-adv-x="1581" d="M49 774q0 307 217 524.5t524.5 217.5t524.5 -217.5t217 -524.5t-217 -524t-524.5 -217t-524.5 217t-217 524zM127 774.5q0 -274.5 194.5 -469t469 -194.5t469 194.5t194.5 469t-194.5 469t-469 194.5t-469 -194.5t-194.5 -469zM268 770q0 236 162 387.5t379 151.5 q147 0 274 -76v80h50v-322h-50v180q-123 86 -276 86q-94 0 -161.5 -66.5t-67.5 -160.5v-518q0 -92 65.5 -160.5t157.5 -68.5q209 0 342 204l43 -28q-152 -227 -381 -228q-221 0 -379 159t-158 380z" />
<glyph unicode="&#xaa;" horiz-adv-x="792" d="M49 1255q0 121 85 209t206 88q39 0 86 -14v12h186v-530q74 20 74 113h57q0 -74 -43 -124.5t-116 -50.5q-57 0 -103 39q-66 -37 -139 -36q-123 0 -208 86t-85 208zM250 1104q0 -37 26.5 -62.5t63.5 -25.5q59 -1 106 26q-20 37 -20 74v361q-41 18 -88 18q-35 0 -61.5 -26.5 t-26.5 -61.5v-303z" />
<glyph unicode="&#xab;" horiz-adv-x="704" d="M49 715l322 321l80 -80l-242 -241l242 -242l-80 -80zM254 715l321 321l80 -80l-241 -241l241 -242l-80 -80z" />
<glyph unicode="&#xac;" horiz-adv-x="1054" d="M49 713v137h957v-506h-138v369h-819z" />
<glyph unicode="&#xad;" horiz-adv-x="540" d="M49 643v90h443v-90h-443z" />
<glyph unicode="&#xae;" horiz-adv-x="663" d="M49 1282q0 117 83 200t200 83t199.5 -83t82.5 -200t-82.5 -200t-199.5 -83t-200 83t-83 200zM94 1282q0 -98 69.5 -168t168 -70t168 70t69.5 168t-69.5 167t-168 69t-168 -69t-69.5 -167zM193 1114v35h32v272h-32v37h167q29 0 48.5 -20.5t19.5 -46.5q0 -39 -33 -60 q8 -12 11 -18l63 -150l2 2q0 2 2 7.5t4 11.5l33 -17q-20 -53 -70 -53q-51 0 -67 43l-58 141v-149h33v-35h-155zM315 1358h45q12 0 21.5 9.5t9.5 23.5q0 12 -9 21t-22 9h-45v-63z" />
<glyph unicode="&#xaf;" horiz-adv-x="595" d="M49 1253v177h498v-177h-498z" />
<glyph unicode="&#xb0;" horiz-adv-x="546" d="M49 1354q0 92 65.5 157.5t159.5 65.5q90 0 157 -66.5t67 -156.5q0 -92 -66.5 -159t-157.5 -67q-94 0 -159.5 66t-65.5 160zM139 1354q0 -57 39 -96t96 -39q53 0 93.5 40t40.5 95q0 53 -40 93t-94 40q-57 0 -96 -39t-39 -94z" />
<glyph unicode="&#xb1;" horiz-adv-x="1161" d="M49 45v135h1063v-135h-1063zM49 750v135h463v381h137v-381h463v-135h-461v-381h-137v381h-465z" />
<glyph unicode="&#xb2;" horiz-adv-x="575" d="M49 807q266 518 318 618q8 20 8 33q0 45 -30 68.5t-71 23.5q-66 0 -118 -42t-68 -107l-27 6q16 76 77 124t138 48q92 0 155 -67.5t63 -153.5q0 -47 -17 -78l-221 -446h242v159h28v-186h-477z" />
<glyph unicode="&#xb3;" horiz-adv-x="563" d="M49 915l25 15q66 -100 178 -101q33 0 55.5 20.5t22.5 53.5v303q0 31 -21.5 52.5t-52.5 21.5h-31v29h54q18 0 31.5 13t13.5 32v147q0 16 -12.5 29.5t-30.5 13.5q-80 0 -121 -71l-25 12q47 88 146 88q78 0 126 -52.5t48 -119.5q0 -80 -62 -129q55 -35 88 -93t33 -124 q0 -104 -74.5 -179t-183.5 -75q-129 0 -207 114z" />
<glyph unicode="&#xb4;" horiz-adv-x="454" d="M49 1251l311 179l46 -164l-334 -90z" />
<glyph unicode="&#xb5;" horiz-adv-x="1355" d="M49 1071v57h96q119 0 203 -85t84 -203v-633q0 -47 28.5 -90t69.5 -43q61 0 105.5 40t64 104.5t27.5 121.5t8 113q0 8 -1 58t-1 203.5v413.5h316v-1071q86 10 144 76t58 154v35h56q0 -131 -78 -226.5t-209 -95.5q-88 0 -162 48t-106 134q-94 -182 -320 -182v-309h68v-58 h-97q-119 0 -202.5 85t-83.5 204v1149h-68z" />
<glyph unicode="&#xb6;" horiz-adv-x="1286" d="M49 1061q0 205 146.5 350t349.5 145h692v-86h-193v-1841h-233v1841h-98v-1841h-236v940q-180 27 -304 167.5t-124 324.5z" />
<glyph unicode="&#xb7;" horiz-adv-x="399" d="M49 702.5q0 61.5 44 105.5t105.5 44t106.5 -44t45 -105.5t-44 -105.5t-105.5 -44t-106.5 44t-45 105.5z" />
<glyph unicode="&#xb8;" horiz-adv-x="405" d="M49 -225l41 65q59 -39 109 -39q29 0 54.5 13.5t25.5 35.5q0 25 -52 37l-53 13l90 155l70 -37l-41 -71q63 -33 63 -97q0 -55 -45 -90.5t-108 -35.5q-76 0 -154 51z" />
<glyph unicode="&#xb9;" horiz-adv-x="450" d="M49 1446l4 29q6 -2 19 -2q90 0 137 81q4 4 4 9h109v-746h79v-26h-323v26h80v649q-41 -23 -86 -22q-16 0 -23 2z" />
<glyph unicode="&#xba;" horiz-adv-x="688" d="M49 1251q0 119 83 209t212 90t212 -90t83 -208.5t-86 -204.5q-88 -88 -209 -89q-119 0 -207 89.5t-88 203.5zM256 1104q0 -37 26.5 -62.5t61.5 -25.5q37 0 62.5 25.5t25.5 62.5v303q0 41 -25.5 63.5t-62.5 22.5q-35 0 -61.5 -22.5t-26.5 -63.5v-303z" />
<glyph unicode="&#xbb;" horiz-adv-x="704" d="M49 473l242 242l-242 241l80 80l322 -321l-322 -322zM254 473l242 242l-242 241l80 80l321 -321l-321 -322z" />
<glyph unicode="&#xbc;" horiz-adv-x="1507" d="M49 1384l6 37q8 -2 25 -2q117 0 172 103q4 4 4 8h137v-938h88v-35h-395v35h100v819q-45 -29 -110 -29q-4 0 -13.5 1t-13.5 1zM297 0l645 1544h162l-645 -1544h-162zM727 426l229 547h97l-217 -512h249v512h209v-512h164v-35h-164v-391h97v-35h-398v35h92v391h-358z" />
<glyph unicode="&#xbd;" horiz-adv-x="1513" d="M49 1389l6 36q8 -2 25 -2q55 0 103 31t75 82h135v-938h90v-35h-397v35h102v817q-57 -29 -114 -29q-4 0 -12.5 1.5t-12.5 1.5zM307 0l645 1544h162l-645 -1544h-162zM864 0l400 780q8 16 8 39q0 57 -37 87t-86 30q-84 0 -150.5 -53.5t-85.5 -134.5l-34 8q23 96 98.5 156.5 t173.5 60.5q119 0 195.5 -85t76.5 -194q0 -20 -6 -59t-14 -39l-279 -561h306v201h34v-236h-600z" />
<glyph unicode="&#xbe;" horiz-adv-x="1538" d="M49 700l29 21q37 -57 98.5 -92t128.5 -35q39 0 67.5 25.5t28.5 66.5v383q0 39 -26.5 65.5t-65.5 26.5h-39v37h66q25 0 41 16.5t16 38.5v187q0 23 -15.5 39t-37.5 16q-100 0 -152 -92l-30 16q27 49 77 81t105 32q98 0 158.5 -65.5t60.5 -151.5q0 -100 -78 -164 q72 -43 113 -116.5t41 -155.5q0 -133 -94.5 -226.5t-231.5 -93.5q-166 0 -260 141zM352 0l645 1544h162l-645 -1544h-162zM760 426l229 547h96l-219 -512h252v512h207v-512h164v-35h-164v-391h96v-35h-397v35h94v391h-358z" />
<glyph unicode="&#xbf;" horiz-adv-x="897" d="M49 -10q0 102 31 161.5t96 124.5l35 35t37 38t32.5 36t34 39t29 36.5t28.5 42t20.5 41t18.5 46t9 46.5t4 52h55v-24q0 -119 -21.5 -249t-45.5 -198q-92 -233 -93 -397q0 -172 133.5 -172t231.5 92t109 240l55 -3q-4 -160 -121 -274q-121 -115 -278 -115 q-131 0 -265.5 122t-134.5 280zM295 985.5q0 61.5 43 105.5t106 44q61 0 104.5 -44t43.5 -105.5t-43 -105.5t-105 -44q-63 0 -106 44t-43 105.5z" />
<glyph unicode="&#xc0;" d="M49 0v55h189l374 1489h353l448 -1489h141v-55h-636v55h151l-108 365h-574l-92 -365h184v-55h-430zM401 477h541l-295 979zM623 1681l43 164l313 -178l-21 -76z" />
<glyph unicode="&#xc1;" d="M49 0v55h189l374 1489h353l448 -1489h141v-55h-636v55h151l-108 365h-574l-92 -365h184v-55h-430zM401 477h541l-295 979zM623 1667l311 178l45 -164l-334 -90z" />
<glyph unicode="&#xc2;" d="M49 0v55h189l374 1489h353l448 -1489h141v-55h-636v55h151l-108 365h-574l-92 -365h184v-55h-430zM401 477h541l-295 979zM584 1673l217 178l219 -178l-68 -82l-151 125l-152 -125z" />
<glyph unicode="&#xc3;" d="M49 0v55h189l374 1489h353l448 -1489h141v-55h-636v55h151l-108 365h-574l-92 -365h184v-55h-430zM401 477h541l-295 979zM582 1620q16 57 66 99t108 42q20 0 64 -17.5t73 -17.5q41 0 57 31l72 -28q-16 -55 -66.5 -96.5t-107.5 -41.5q-20 0 -62.5 17.5t-72.5 17.5 q-41 0 -58 -33z" />
<glyph unicode="&#xc4;" d="M49 0v55h189l374 1489h353l448 -1489h141v-55h-636v55h151l-108 365h-574l-92 -365h184v-55h-430zM401 477h541l-295 979zM588 1685.5q0 38.5 27.5 66.5t66.5 28t66.5 -28t27.5 -66.5t-27.5 -66.5t-66.5 -28t-66.5 28t-27.5 66.5zM829 1685.5q0 38.5 27 66.5t66 28 q41 0 67.5 -28t26.5 -66.5t-26.5 -66.5t-67.5 -28q-39 0 -66 28t-27 66.5z" />
<glyph unicode="&#xc5;" d="M49 0v55h189l374 1489h353l448 -1489h141v-55h-636v55h151l-108 365h-574l-92 -365h184v-55h-430zM401 477h541l-295 979zM647 1669.5q0 63.5 45 108.5t108.5 45t108.5 -45t45 -108.5t-45 -107.5t-108.5 -44t-108.5 44t-45 107.5zM725 1669q0 -31 22.5 -52.5t53 -21.5 t52 21.5t21.5 52.5t-21.5 53.5t-52 22.5t-53 -22.5t-22.5 -53.5z" />
<glyph unicode="&#xc6;" horiz-adv-x="1992" d="M49 0v55h193l719 1432h-123v57h1106v-307h-58v250h-565v-1010h311v-57h-311v-365h565v437h58v-492h-1106v55h172v365h-523l-182 -365h174v-55h-430zM516 477h494v981z" />
<glyph unicode="&#xc7;" horiz-adv-x="1409" d="M49 772q0 225 111.5 404.5t288 272.5t376.5 93q219 0 406 -117v123h55v-448h-55v258q-186 129 -410 129q-139 0 -239.5 -100.5t-100.5 -239.5v-750q0 -139 97.5 -240.5t234.5 -101.5q307 0 500 293l47 -31q-211 -317 -549 -317q-315 0 -538.5 227.5t-223.5 544.5z M516 -221l41 65q59 -39 109 -39q29 0 54 13.5t25 36.5q0 25 -51 36l-53 13l90 155l70 -36l-41 -72q63 -33 63 -96q0 -55 -45 -91t-108 -36q-76 0 -154 51z" />
<glyph unicode="&#xc8;" horiz-adv-x="1206" d="M49 0v55h174v1432h-174v57h1108v-307h-57v250h-568v-420h304v-57h-304v-955h566v437h59v-492h-1108zM424 1681l43 164l313 -178l-20 -76z" />
<glyph unicode="&#xc9;" horiz-adv-x="1206" d="M49 0v55h174v1432h-174v57h1108v-307h-57v250h-568v-420h304v-57h-304v-955h566v437h59v-492h-1108zM424 1667l311 178l45 -164l-334 -90z" />
<glyph unicode="&#xca;" horiz-adv-x="1206" d="M49 0v55h174v1432h-174v57h1108v-307h-57v250h-568v-420h304v-57h-304v-955h566v437h59v-492h-1108zM385 1673l217 178l219 -178l-67 -82l-152 125l-151 -125z" />
<glyph unicode="&#xcb;" horiz-adv-x="1206" d="M49 0v55h174v1432h-174v57h1108v-307h-57v250h-568v-420h304v-57h-304v-955h566v437h59v-492h-1108zM389 1685.5q0 38.5 27.5 66.5t66.5 28t67 -28t28 -66.5t-28 -66.5t-67 -28t-66.5 28t-27.5 66.5zM631 1685.5q0 38.5 26.5 66.5t65.5 28t66.5 -28t27.5 -66.5 t-27.5 -66.5t-66.5 -28t-65.5 28t-26.5 66.5z" />
<glyph unicode="&#xcc;" horiz-adv-x="757" d="M49 0v55h174v1432h-174v57h660v-57h-174v-1432h174v-55h-660zM201 1681l43 164l313 -178l-20 -76z" />
<glyph unicode="&#xcd;" horiz-adv-x="757" d="M49 0v55h174v1432h-174v57h660v-57h-174v-1432h174v-55h-660zM201 1667l311 178l45 -164l-334 -90z" />
<glyph unicode="&#xce;" horiz-adv-x="757" d="M49 0v55h174v1432h-174v57h660v-57h-174v-1432h174v-55h-660zM160 1673l217 178l219 -178l-68 -82l-151 125l-152 -125z" />
<glyph unicode="&#xcf;" horiz-adv-x="757" d="M49 0v55h174v1432h-174v57h660v-57h-174v-1432h174v-55h-660zM164 1685.5q0 38.5 27.5 66.5t66.5 28t66.5 -28t27.5 -66.5t-27.5 -66.5t-66.5 -28t-66.5 28t-27.5 66.5zM406 1685.5q0 38.5 26.5 66.5t65.5 28t66.5 -28t27.5 -66.5t-27.5 -66.5t-66.5 -28t-65.5 28 t-26.5 66.5z" />
<glyph unicode="&#xd0;" horiz-adv-x="1439" d="M49 0v55h156v652h-154v86h154v694h-156v57h567q319 0 547 -226t228 -545.5t-227.5 -546t-547.5 -226.5h-567zM514 55h102q297 0 507 210t210 507q0 295 -210 505t-507 210h-102v-694h127v-86h-127v-652z" />
<glyph unicode="&#xd1;" horiz-adv-x="1538" d="M49 0v55h174v1432h-174v57h473l690 -1405v1348h-168v57h445v-57h-221v-1432h137v-55h-186l-684 1391v-1336h167v-55h-653zM549 1620q16 57 66.5 99t107.5 42q20 0 64 -17.5t73 -17.5q41 0 58 31l71 -28q-16 -55 -66.5 -96.5t-107.5 -41.5q-20 0 -62 17.5t-73 17.5 q-41 0 -57 -33z" />
<glyph unicode="&#xd2;" horiz-adv-x="1642" d="M49 772.5q0 319.5 226.5 549.5t545.5 230q317 0 544.5 -230t227.5 -549.5t-227 -550t-545 -230.5q-319 0 -545.5 230.5t-226.5 550zM479 389q0 -137 99.5 -239.5t240.5 -102.5q137 0 239.5 100.5t102.5 241.5v766q0 137 -101.5 238.5t-240.5 101.5q-135 0 -237.5 -100.5 t-102.5 -239.5v-766zM643 1681l43 164l313 -178l-20 -76z" />
<glyph unicode="&#xd3;" horiz-adv-x="1642" d="M49 772.5q0 319.5 226.5 549.5t545.5 230q317 0 544.5 -230t227.5 -549.5t-227 -550t-545 -230.5q-319 0 -545.5 230.5t-226.5 550zM479 389q0 -137 99.5 -239.5t240.5 -102.5q137 0 239.5 100.5t102.5 241.5v766q0 137 -101.5 238.5t-240.5 101.5q-135 0 -237.5 -100.5 t-102.5 -239.5v-766zM643 1667l311 178l45 -164l-333 -90z" />
<glyph unicode="&#xd4;" horiz-adv-x="1642" d="M49 772.5q0 319.5 226.5 549.5t545.5 230q317 0 544.5 -230t227.5 -549.5t-227 -550t-545 -230.5q-319 0 -545.5 230.5t-226.5 550zM479 389q0 -137 99.5 -239.5t240.5 -102.5q137 0 239.5 100.5t102.5 241.5v766q0 137 -101.5 238.5t-240.5 101.5q-135 0 -237.5 -100.5 t-102.5 -239.5v-766zM602 1673l217 178l219 -178l-67 -82l-152 125l-151 -125z" />
<glyph unicode="&#xd5;" horiz-adv-x="1642" d="M49 772.5q0 319.5 226.5 549.5t545.5 230q317 0 544.5 -230t227.5 -549.5t-227 -550t-545 -230.5q-319 0 -545.5 230.5t-226.5 550zM479 389q0 -137 99.5 -239.5t240.5 -102.5q137 0 239.5 100.5t102.5 241.5v766q0 137 -101.5 238.5t-240.5 101.5q-135 0 -237.5 -100.5 t-102.5 -239.5v-766zM600 1620q16 57 66.5 99t107.5 42q20 0 64.5 -17.5t72.5 -17.5q41 0 58 31l71 -28q-16 -55 -66 -96.5t-108 -41.5q-20 0 -62 17.5t-73 17.5q-41 0 -57 -33z" />
<glyph unicode="&#xd6;" horiz-adv-x="1642" d="M49 772.5q0 319.5 226.5 549.5t545.5 230q317 0 544.5 -230t227.5 -549.5t-227 -550t-545 -230.5q-319 0 -545.5 230.5t-226.5 550zM479 389q0 -137 99.5 -239.5t240.5 -102.5q137 0 239.5 100.5t102.5 241.5v766q0 137 -101.5 238.5t-240.5 101.5q-135 0 -237.5 -100.5 t-102.5 -239.5v-766zM606 1685.5q0 38.5 28 66.5t66.5 28t66.5 -28t28 -66.5t-28 -66.5t-66.5 -28t-66.5 28t-28 66.5zM848 1685.5q0 38.5 26.5 66.5t65.5 28t66.5 -28t27.5 -66.5t-27.5 -66.5t-66.5 -28t-65.5 28t-26.5 66.5z" />
<glyph unicode="&#xd7;" horiz-adv-x="1073" d="M49 272l393 392l-393 391l96 96l392 -391l393 391l94 -96l-391 -391l391 -392l-94 -96l-393 391l-392 -391z" />
<glyph unicode="&#xd8;" horiz-adv-x="1822" d="M49 -2l275 274q-184 217 -185 500q0 319 226.5 545.5t545.5 226.5q283 0 500 -184l186 186h177l-275 -274q184 -217 184 -500q0 -319 -226 -545.5t-546 -226.5q-283 0 -499 184l-187 -186h-176zM571 518l678 678q-23 131 -121 211t-217 80q-133 0 -236.5 -97.5 t-103.5 -242.5v-629zM573 346q20 -129 119 -210t217 -81q135 0 239.5 97.5t104.5 244.5v627z" />
<glyph unicode="&#xd9;" horiz-adv-x="1513" d="M49 1487v57h629v-57h-154v-1213q0 -98 70 -164.5t168 -66.5q213 0 361.5 143.5t148.5 364.5v936h-182v57h374v-57h-137v-936q0 -266 -168 -413.5t-397.5 -147.5t-396 147.5t-166.5 413.5v936h-150zM578 1681l43 164l313 -178l-21 -76z" />
<glyph unicode="&#xda;" horiz-adv-x="1513" d="M49 1487v57h629v-57h-154v-1213q0 -98 70 -164.5t168 -66.5q213 0 361.5 143.5t148.5 364.5v936h-182v57h374v-57h-137v-936q0 -266 -168 -413.5t-397.5 -147.5t-396 147.5t-166.5 413.5v936h-150zM578 1667l311 178l45 -164l-334 -90z" />
<glyph unicode="&#xdb;" horiz-adv-x="1513" d="M49 1487v57h629v-57h-154v-1213q0 -98 70 -164.5t168 -66.5q213 0 361.5 143.5t148.5 364.5v936h-182v57h374v-57h-137v-936q0 -266 -168 -413.5t-397.5 -147.5t-396 147.5t-166.5 413.5v936h-150zM539 1673l217 178l219 -178l-68 -82l-151 125l-152 -125z" />
<glyph unicode="&#xdc;" horiz-adv-x="1513" d="M49 1487v57h629v-57h-154v-1213q0 -98 70 -164.5t168 -66.5q213 0 361.5 143.5t148.5 364.5v936h-182v57h374v-57h-137v-936q0 -266 -168 -413.5t-397.5 -147.5t-396 147.5t-166.5 413.5v936h-150zM543 1685.5q0 38.5 27.5 66.5t66.5 28t66.5 -28t27.5 -66.5t-27.5 -66.5 t-66.5 -28t-66.5 28t-27.5 66.5zM784 1685.5q0 38.5 27 66.5t66 28q41 0 67.5 -28t26.5 -66.5t-26.5 -66.5t-67.5 -28q-39 0 -66 28t-27 66.5z" />
<glyph unicode="&#xdd;" horiz-adv-x="1439" d="M49 1487v57h189q213 0 311 -233l285 -690l337 866h-186v57h406v-57h-158l-399 -1008v-424h176v-55h-660v55h174v434l-393 998h-82zM541 1667l311 178l45 -164l-334 -90z" />
<glyph unicode="&#xde;" horiz-adv-x="1378" d="M49 1487v57h696v-57h-215v-156h271q219 0 373.5 -155.5t154.5 -372.5t-154.5 -373t-373.5 -156h-271v-219h215v-55h-688v55h164v1432h-172zM530 332h271q195 0 334 138t139 332.5t-139.5 333t-333.5 138.5h-271v-942z" />
<glyph unicode="&#xdf;" horiz-adv-x="1560" d="M49 1071v57h119v129q20 123 115.5 205t220.5 82q141 0 241.5 -100.5t100.5 -239.5q0 -164 -86 -225q-27 -29 -27 -59q0 -63 86 -101q35 -14 195 -83.5t246 -106.5q100 -43 175.5 -123t75.5 -187q0 -104 -80.5 -182t-190.5 -110.5t-222 -32.5q-186 0 -340 101.5 t-154 279.5h58q0 -150 135 -239t309 -89q113 0 206 45t93 113q0 29 -18.5 55.5t-55.5 48t-65.5 35.5t-74.5 32.5t-60 24.5q-35 16 -99.5 39t-115 40.5t-107.5 47t-96 61.5t-64.5 82t-25.5 109q0 55 31.5 104.5t62.5 75t88 64.5q63 43 63 180q0 117 -83.5 200t-200.5 83h-25 v-1596l-311 -139v1319h-119z" />
<glyph unicode="&#xe0;" horiz-adv-x="1429" d="M49 565q0 225 164 394t389 169q102 0 203 -41v41h315v-1071q106 12 155.5 90t49.5 175h55q0 -131 -75.5 -226.5t-210.5 -95.5q-123 0 -203 84q-129 -84 -289 -84q-225 0 -389 169t-164 396zM397 260q0 -84 60.5 -144.5t144.5 -60.5q137 0 252 72q-49 72 -49 160v741 q-94 43 -205 43q-84 0 -143.5 -59.5t-59.5 -143.5v-608zM537 1266l43 164l313 -179l-21 -75z" />
<glyph unicode="&#xe1;" horiz-adv-x="1429" d="M49 565q0 225 164 394t389 169q102 0 203 -41v41h315v-1071q106 12 155.5 90t49.5 175h55q0 -131 -75.5 -226.5t-210.5 -95.5q-123 0 -203 84q-129 -84 -289 -84q-225 0 -389 169t-164 396zM397 260q0 -84 60.5 -144.5t144.5 -60.5q137 0 252 72q-49 72 -49 160v741 q-94 43 -205 43q-84 0 -143.5 -59.5t-59.5 -143.5v-608zM537 1251l311 179l45 -164l-334 -90z" />
<glyph unicode="&#xe2;" horiz-adv-x="1429" d="M49 565q0 225 164 394t389 169q102 0 203 -41v41h315v-1071q106 12 155.5 90t49.5 175h55q0 -131 -75.5 -226.5t-210.5 -95.5q-123 0 -203 84q-129 -84 -289 -84q-225 0 -389 169t-164 396zM397 260q0 -84 60.5 -144.5t144.5 -60.5q137 0 252 72q-49 72 -49 160v741 q-94 43 -205 43q-84 0 -143.5 -59.5t-59.5 -143.5v-608zM496 1257l217 179l219 -179l-68 -81l-151 124l-152 -124z" />
<glyph unicode="&#xe3;" horiz-adv-x="1429" d="M49 565q0 225 164 394t389 169q102 0 203 -41v41h315v-1071q106 12 155.5 90t49.5 175h55q0 -131 -75.5 -226.5t-210.5 -95.5q-123 0 -203 84q-129 -84 -289 -84q-225 0 -389 169t-164 396zM397 260q0 -84 60.5 -144.5t144.5 -60.5q137 0 252 72q-49 72 -49 160v741 q-94 43 -205 43q-84 0 -143.5 -59.5t-59.5 -143.5v-608zM494 1204q16 57 66 99.5t108 42.5q20 0 64 -17.5t73 -17.5q41 0 57 30l72 -28q-16 -55 -66.5 -96t-107.5 -41q-20 0 -62.5 17t-72.5 17q-41 0 -58 -32z" />
<glyph unicode="&#xe4;" horiz-adv-x="1429" d="M49 565q0 225 164 394t389 169q102 0 203 -41v41h315v-1071q106 12 155.5 90t49.5 175h55q0 -131 -75.5 -226.5t-210.5 -95.5q-123 0 -203 84q-129 -84 -289 -84q-225 0 -389 169t-164 396zM397 260q0 -84 60.5 -144.5t144.5 -60.5q137 0 252 72q-49 72 -49 160v741 q-94 43 -205 43q-84 0 -143.5 -59.5t-59.5 -143.5v-608zM500 1270q0 39 27.5 66.5t66.5 27.5t66.5 -27.5t27.5 -66.5t-27.5 -66.5t-66.5 -27.5t-66.5 27.5t-27.5 66.5zM741 1270q0 39 27 66.5t65.5 27.5t66.5 -26.5t28 -67.5t-28 -67.5t-66.5 -26.5t-65.5 27.5t-27 66.5z " />
<glyph unicode="&#xe5;" horiz-adv-x="1429" d="M49 565q0 225 164 394t389 169q102 0 203 -41v41h315v-1071q106 12 155.5 90t49.5 175h55q0 -131 -75.5 -226.5t-210.5 -95.5q-123 0 -203 84q-129 -84 -289 -84q-225 0 -389 169t-164 396zM397 260q0 -84 60.5 -144.5t144.5 -60.5q137 0 252 72q-49 72 -49 160v741 q-94 43 -205 43q-84 0 -143.5 -59.5t-59.5 -143.5v-608zM518 1320.5q0 63.5 45 109t108.5 45.5t108.5 -45.5t45 -109t-45 -107.5t-108.5 -44t-108.5 44t-45 107.5zM596 1321q0 -31 22.5 -52.5t53 -21.5t52 21.5t21.5 52.5t-21.5 53.5t-52 22.5t-53 -22.5t-22.5 -53.5z" />
<glyph unicode="&#xe6;" horiz-adv-x="1918" d="M49 563q0 238 166 400.5t389 162.5q104 0 201 -39v41h315v-55q111 55 242 55q211 0 348 -137q82 -84 120 -177t40 -228h-715v-326q0 -84 60.5 -144.5t144.5 -60.5q133 0 253 67.5t187 182.5l49 -29q-76 -131 -207 -203.5t-278 -72.5q-223 0 -383 154q-160 -154 -375 -154 q-223 0 -390 157.5t-167 405.5zM397 260q0 -84 60.5 -144.5t144.5 -60.5q195 1 340 140q-137 162 -137 354v479q-94 43 -205 43q-84 0 -143.5 -59.5t-59.5 -143.5v-608zM1155 641h408v227q0 82 -60.5 142.5t-142.5 60.5q-84 0 -144.5 -59.5t-60.5 -143.5v-227z" />
<glyph unicode="&#xe7;" horiz-adv-x="1048" d="M49 563q0 227 163 395t388 168q137 0 258 -56t121 -157q0 -51 -36 -91t-95 -40q-57 0 -94 41t-37 92q0 82 76 117q-76 41 -164 41q-98 0 -166 -51t-68 -154v-608q0 -84 61.5 -144.5t145.5 -60.5q207 0 356 156l41 -39q-164 -174 -397 -174q-221 0 -387 168t-166 397z M326 -223l41 65q59 -39 108 -39q29 0 54.5 13.5t25.5 36.5q0 25 -51 36l-53 13l90 155l69 -37l-41 -71q63 -33 64 -96q0 -55 -45 -91t-109 -36q-78 0 -153 51z" />
<glyph unicode="&#xe8;" horiz-adv-x="1165" d="M49 563q0 231 162 398t391 167q252 0 377 -152t137 -390h-719v-326q0 -84 60.5 -144.5t144.5 -60.5q133 0 254 67.5t186 182.5l52 -29q-74 -127 -207 -201.5t-283 -74.5q-231 0 -393 167t-162 396zM397 641h412v227q0 84 -60.5 143.5t-144.5 59.5t-145.5 -60.5 t-61.5 -142.5v-227zM403 1266l43 164l314 -179l-21 -75z" />
<glyph unicode="&#xe9;" horiz-adv-x="1165" d="M49 563q0 231 162 398t391 167q252 0 377 -152t137 -390h-719v-326q0 -84 60.5 -144.5t144.5 -60.5q133 0 254 67.5t186 182.5l52 -29q-74 -127 -207 -201.5t-283 -74.5q-231 0 -393 167t-162 396zM397 641h412v227q0 84 -60.5 143.5t-144.5 59.5t-145.5 -60.5 t-61.5 -142.5v-227zM403 1251l312 179l45 -164l-334 -90z" />
<glyph unicode="&#xea;" horiz-adv-x="1165" d="M49 563q0 231 162 398t391 167q252 0 377 -152t137 -390h-719v-326q0 -84 60.5 -144.5t144.5 -60.5q133 0 254 67.5t186 182.5l52 -29q-74 -127 -207 -201.5t-283 -74.5q-231 0 -393 167t-162 396zM365 1257l217 179l219 -179l-68 -81l-151 124l-152 -124zM397 641h412 v227q0 84 -60.5 143.5t-144.5 59.5t-145.5 -60.5t-61.5 -142.5v-227z" />
<glyph unicode="&#xeb;" horiz-adv-x="1165" d="M49 563q0 231 162 398t391 167q252 0 377 -152t137 -390h-719v-326q0 -84 60.5 -144.5t144.5 -60.5q133 0 254 67.5t186 182.5l52 -29q-74 -127 -207 -201.5t-283 -74.5q-231 0 -393 167t-162 396zM369 1270q0 39 27.5 66.5t66.5 27.5t66.5 -27.5t27.5 -66.5t-27.5 -66.5 t-66.5 -27.5t-66.5 27.5t-27.5 66.5zM397 641h412v227q0 84 -60.5 143.5t-144.5 59.5t-145.5 -60.5t-61.5 -142.5v-227zM610 1270q0 39 27 66.5t65.5 27.5t66.5 -26.5t28 -67.5t-28 -67.5t-66.5 -26.5t-65.5 27.5t-27 66.5z" />
<glyph unicode="&#xec;" horiz-adv-x="643" d="M6 1266l43 164l313 -179l-20 -75zM49 1071v57h103q119 0 203.5 -85t84.5 -203v-783q86 10 144.5 76t58.5 154v35h57v-35q0 -119 -85 -203t-203.5 -84t-202.5 84t-84 203v784h-76z" />
<glyph unicode="&#xed;" horiz-adv-x="643" d="M49 1071v57h103q119 0 203.5 -85t84.5 -203v-783q86 10 144.5 76t58.5 154v35h57v-35q0 -119 -85 -203t-203.5 -84t-202.5 84t-84 203v784h-76zM70 1251l311 179l45 -164l-334 -90z" />
<glyph unicode="&#xee;" horiz-adv-x="643" d="M8 1257l217 179l219 -179l-67 -81l-152 124l-151 -124zM49 1071v57h103q119 0 203.5 -85t84.5 -203v-783q86 10 144.5 76t58.5 154v35h57v-35q0 -119 -85 -203t-203.5 -84t-202.5 84t-84 203v784h-76z" />
<glyph unicode="&#xef;" horiz-adv-x="643" d="M0 1270q0 39 27.5 66.5t66.5 27.5t66.5 -27.5t27.5 -66.5t-27.5 -66.5t-66.5 -27.5t-66.5 27.5t-27.5 66.5zM49 1071v57h103q119 0 203.5 -85t84.5 -203v-783q86 10 144.5 76t58.5 154v35h57v-35q0 -119 -85 -203t-203.5 -84t-202.5 84t-84 203v784h-76zM242 1270 q0 39 26.5 66.5t65.5 27.5t66.5 -26.5t27.5 -67.5t-27.5 -67.5t-66.5 -26.5t-65.5 27.5t-26.5 66.5z" />
<glyph unicode="&#xf0;" horiz-adv-x="1230" d="M49 563q0 233 155.5 398t366.5 165q113 0 213 -49v187l-108 -52l-25 52l133 63v160h-71v55h26q102 0 167 -17.5t122 -80.5l129 61l25 -49l-121 -59q39 -66 39 -142v-798q0 -215 -152.5 -337t-374 -122t-373 170t-151.5 395zM371 258q0 -96 61.5 -150.5t145.5 -54.5 t145 54.5t61 150.5v608q0 86 -62.5 145.5t-148.5 59.5q-84 0 -143 -60.5t-59 -144.5v-608z" />
<glyph unicode="&#xf1;" horiz-adv-x="1271" d="M49 1071v57h117q88 0 161.5 -50t106.5 -134q41 84 123 134t176 50q139 0 237.5 -99t98.5 -236v-736q86 10 144.5 76t58.5 154v35h57q0 -143 -74.5 -232.5t-212.5 -89.5q-121 0 -204.5 84t-83.5 203v635q0 47 -28 90t-73 43q-82 0 -141 -89t-59 -173v-793h-316v1071h-88z M416 1204q16 57 66 99.5t108 42.5q20 0 64 -17.5t73 -17.5q41 0 57 30l72 -28q-16 -55 -66.5 -96t-107.5 -41q-20 0 -62 17t-73 17q-41 0 -58 -32z" />
<glyph unicode="&#xf2;" horiz-adv-x="1222" d="M49 563q0 231 166 402.5t397.5 171.5t396.5 -170.5t165 -403.5q0 -231 -165 -401t-396.5 -170t-397.5 169t-166 402zM408 252q0 -84 59 -144.5t143 -60.5t144.5 60.5t60.5 144.5v625q0 84 -60.5 143t-144.5 59q-82 0 -142 -60.5t-60 -141.5v-625zM432 1266l43 164 l313 -179l-20 -75z" />
<glyph unicode="&#xf3;" horiz-adv-x="1222" d="M49 563q0 231 166 402.5t397.5 171.5t396.5 -170.5t165 -403.5q0 -231 -165 -401t-396.5 -170t-397.5 169t-166 402zM408 252q0 -84 59 -144.5t143 -60.5t144.5 60.5t60.5 144.5v625q0 84 -60.5 143t-144.5 59q-82 0 -142 -60.5t-60 -141.5v-625zM432 1251l311 179 l45 -164l-333 -90z" />
<glyph unicode="&#xf4;" horiz-adv-x="1222" d="M49 563q0 231 166 402.5t397.5 171.5t396.5 -170.5t165 -403.5q0 -231 -165 -401t-396.5 -170t-397.5 169t-166 402zM393 1257l217 179l219 -179l-67 -81l-152 124l-151 -124zM408 252q0 -84 59 -144.5t143 -60.5t144.5 60.5t60.5 144.5v625q0 84 -60.5 143t-144.5 59 q-82 0 -142 -60.5t-60 -141.5v-625z" />
<glyph unicode="&#xf5;" horiz-adv-x="1222" d="M49 563q0 231 166 402.5t397.5 171.5t396.5 -170.5t165 -403.5q0 -231 -165 -401t-396.5 -170t-397.5 169t-166 402zM391 1204q16 57 66.5 99.5t107.5 42.5q20 0 64.5 -17.5t72.5 -17.5q41 0 58 30l71 -28q-16 -55 -66 -96t-108 -41q-20 0 -62 17t-73 17q-41 0 -57 -32z M408 252q0 -84 59 -144.5t143 -60.5t144.5 60.5t60.5 144.5v625q0 84 -60.5 143t-144.5 59q-82 0 -142 -60.5t-60 -141.5v-625z" />
<glyph unicode="&#xf6;" horiz-adv-x="1222" d="M49 563q0 231 166 402.5t397.5 171.5t396.5 -170.5t165 -403.5q0 -231 -165 -401t-396.5 -170t-397.5 169t-166 402zM397 1270q0 39 28 66.5t66.5 27.5t66.5 -27.5t28 -66.5t-28 -66.5t-66.5 -27.5t-66.5 27.5t-28 66.5zM408 252q0 -84 59 -144.5t143 -60.5t144.5 60.5 t60.5 144.5v625q0 84 -60.5 143t-144.5 59q-82 0 -142 -60.5t-60 -141.5v-625zM639 1270q0 39 26.5 66.5t65.5 27.5t66.5 -26.5t27.5 -67.5t-27.5 -67.5t-66.5 -26.5t-65.5 27.5t-26.5 66.5z" />
<glyph unicode="&#xf7;" horiz-adv-x="1159" d="M49 596v135h1061v-135h-1061zM449 354q0 55 38.5 94t92.5 39q55 0 94 -39t39 -94q0 -53 -39 -92t-94 -39q-53 0 -92 39t-39 92zM449 973q0 55 38.5 94t92.5 39q55 0 94 -39t39 -94q0 -53 -39 -92t-94 -39q-53 0 -92 39t-39 92z" />
<glyph unicode="&#xf8;" horiz-adv-x="1390" d="M49 -14l217 215q-133 160 -133 362q0 231 165 398t398 167q205 0 363 -135l149 150h133l-217 -217q133 -160 133 -363q0 -231 -164.5 -397t-396.5 -166q-207 0 -364 135l-150 -149h-133zM492 260q0 -84 60 -144.5t144 -60.5t143.5 60.5t59.5 144.5v442l-407 -409v-33z M492 426l407 408v34q0 82 -60.5 142.5t-142.5 60.5q-84 0 -144 -59.5t-60 -143.5v-442z" />
<glyph unicode="&#xf9;" horiz-adv-x="1249" d="M49 1071v57h96q119 0 203 -85t84 -203v-633q0 -47 28.5 -90t69.5 -43q98 0 150.5 100t52.5 221v733h316v-1071q86 10 144 76t58 154v35h56q0 -143 -76 -232.5t-211 -89.5q-88 0 -162 48t-106 134q-43 -84 -124 -133t-175 -49q-137 0 -236.5 98.5t-99.5 237.5v735h-68z M446 1266l43 164l314 -179l-21 -75z" />
<glyph unicode="&#xfa;" horiz-adv-x="1249" d="M49 1071v57h96q119 0 203 -85t84 -203v-633q0 -47 28.5 -90t69.5 -43q98 0 150.5 100t52.5 221v733h316v-1071q86 10 144 76t58 154v35h56q0 -143 -76 -232.5t-211 -89.5q-88 0 -162 48t-106 134q-43 -84 -124 -133t-175 -49q-137 0 -236.5 98.5t-99.5 237.5v735h-68z M446 1251l312 179l45 -164l-334 -90z" />
<glyph unicode="&#xfb;" horiz-adv-x="1249" d="M49 1071v57h96q119 0 203 -85t84 -203v-633q0 -47 28.5 -90t69.5 -43q98 0 150.5 100t52.5 221v733h316v-1071q86 10 144 76t58 154v35h56q0 -143 -76 -232.5t-211 -89.5q-88 0 -162 48t-106 134q-43 -84 -124 -133t-175 -49q-137 0 -236.5 98.5t-99.5 237.5v735h-68z M406 1257l217 179l219 -179l-68 -81l-151 124l-152 -124z" />
<glyph unicode="&#xfc;" horiz-adv-x="1249" d="M49 1071v57h96q119 0 203 -85t84 -203v-633q0 -47 28.5 -90t69.5 -43q98 0 150.5 100t52.5 221v733h316v-1071q86 10 144 76t58 154v35h56q0 -143 -76 -232.5t-211 -89.5q-88 0 -162 48t-106 134q-43 -84 -124 -133t-175 -49q-137 0 -236.5 98.5t-99.5 237.5v735h-68z M410 1270q0 39 27.5 66.5t66.5 27.5t66.5 -27.5t27.5 -66.5t-27.5 -66.5t-66.5 -27.5t-66.5 27.5t-27.5 66.5zM651 1270q0 39 27 66.5t65.5 27.5t66.5 -26.5t28 -67.5t-28 -67.5t-66.5 -26.5t-65.5 27.5t-27 66.5z" />
<glyph unicode="&#xfd;" horiz-adv-x="1097" d="M49 1071v57h96q119 0 204 -85t85 -203v-633q0 -47 27.5 -87t70.5 -40q57 0 99.5 33.5t63 87t29.5 104.5t9 101v722h316v-1030q0 -201 -144.5 -345t-345.5 -144t-344 143l39 41q125 -129 303 -129q92 0 176 39v447q-47 -70 -121.5 -110t-156.5 -40q-139 0 -237.5 98.5 t-98.5 237.5v735h-70zM371 1251l311 179l45 -164l-334 -90z" />
<glyph unicode="&#xfe;" horiz-adv-x="1191" d="M49 1487v57h101q117 0 204.5 -86t87.5 -203v-147q70 20 150 20q229 0 390 -166.5t161 -398t-161 -397.5t-390 -166q-80 0 -150 20v-430h-321v1897h-72zM442 80q74 -25 152 -25q84 0 143.5 60.5t59.5 144.5v608q0 84 -60.5 143.5t-144.5 59.5q-72 0 -150 -22v-969z" />
<glyph unicode="&#xff;" horiz-adv-x="1097" d="M49 1071v57h96q119 0 204 -85t85 -203v-633q0 -47 27.5 -87t70.5 -40q57 0 99.5 33.5t63 87t29.5 104.5t9 101v722h316v-1030q0 -201 -144.5 -345t-345.5 -144t-344 143l39 41q125 -129 303 -129q92 0 176 39v447q-47 -70 -121.5 -110t-156.5 -40q-139 0 -237.5 98.5 t-98.5 237.5v735h-70zM334 1270q0 39 27.5 66.5t66.5 27.5t66.5 -27.5t27.5 -66.5t-27.5 -66.5t-66.5 -27.5t-66.5 27.5t-27.5 66.5zM575 1270q0 39 27 66.5t66 27.5q41 0 67.5 -26.5t26.5 -67.5t-26.5 -67.5t-67.5 -26.5q-39 0 -66 27.5t-27 66.5z" />
<glyph unicode="&#x152;" horiz-adv-x="2125" d="M49 772.5q0 319.5 227.5 545.5t546.5 226q176 0 338 -78v78h916v-307h-58v250h-565v-430h301v-58h-301v-944h565v437h58v-492h-916v78q-162 -78 -338 -78q-319 0 -546.5 226.5t-227.5 546zM481 397q0 -145 103.5 -243.5t236.5 -98.5q123 0 222.5 84t117.5 217v830 q-18 133 -118.5 217t-221.5 84q-131 0 -235.5 -98.5t-104.5 -241.5v-750z" />
<glyph unicode="&#x153;" horiz-adv-x="1943" d="M49 563.5q0 231.5 165 398t396 166.5q225 0 389 -159q164 160 385 159q129 0 228.5 -45t159 -122.5t89 -171.5t33.5 -203h-714v-326q0 -84 60 -144.5t144 -60.5q133 0 254 67.5t187 182.5l49 -29q-74 -127 -207 -201.5t-283 -74.5q-221 0 -385 160q-164 -160 -389 -160 q-231 0 -396 166t-165 397.5zM406 260q0 -84 60 -144.5t144 -60.5t144.5 60.5t60.5 144.5v608q0 84 -60.5 143.5t-144.5 59.5t-144 -59.5t-60 -143.5v-608zM1180 641h409v227q0 84 -60.5 143.5t-144.5 59.5t-144 -59.5t-60 -143.5v-227z" />
<glyph unicode="&#x178;" horiz-adv-x="1439" d="M49 1487v57h189q213 0 311 -233l285 -690l337 866h-186v57h406v-57h-158l-399 -1008v-424h176v-55h-660v55h174v434l-393 998h-82zM506 1685.5q0 38.5 27.5 66.5t66.5 28t66.5 -28t27.5 -66.5t-27.5 -66.5t-66.5 -28t-66.5 28t-27.5 66.5zM748 1685.5q0 38.5 26.5 66.5 t65.5 28q41 0 67.5 -28t26.5 -66.5t-26.5 -66.5t-67.5 -28q-39 0 -65.5 28t-26.5 66.5z" />
<glyph unicode="&#x2c6;" horiz-adv-x="534" d="M49 1257l217 179l219 -179l-67 -81l-152 124l-151 -124z" />
<glyph unicode="&#x2dc;" horiz-adv-x="538" d="M49 1204q16 57 66.5 99.5t107.5 42.5q20 0 64.5 -17.5t72.5 -17.5q41 0 58 30l71 -28q-16 -55 -66 -96t-108 -41q-20 0 -62 17t-73 17q-41 0 -57 -32z" />
<glyph unicode="&#x2000;" horiz-adv-x="925" />
<glyph unicode="&#x2001;" horiz-adv-x="1851" />
<glyph unicode="&#x2002;" horiz-adv-x="925" />
<glyph unicode="&#x2003;" horiz-adv-x="1851" />
<glyph unicode="&#x2004;" horiz-adv-x="617" />
<glyph unicode="&#x2005;" horiz-adv-x="462" />
<glyph unicode="&#x2006;" horiz-adv-x="308" />
<glyph unicode="&#x2007;" horiz-adv-x="308" />
<glyph unicode="&#x2008;" horiz-adv-x="231" />
<glyph unicode="&#x2009;" horiz-adv-x="370" />
<glyph unicode="&#x200a;" horiz-adv-x="102" />
<glyph unicode="&#x2010;" horiz-adv-x="540" d="M49 643v90h443v-90h-443z" />
<glyph unicode="&#x2011;" horiz-adv-x="540" d="M49 643v90h443v-90h-443z" />
<glyph unicode="&#x2012;" horiz-adv-x="540" d="M49 643v90h443v-90h-443z" />
<glyph unicode="&#x2013;" horiz-adv-x="978" d="M49 643v90h881v-90h-881z" />
<glyph unicode="&#x2014;" horiz-adv-x="1419" d="M49 643v90h1321v-90h-1321z" />
<glyph unicode="&#x2018;" horiz-adv-x="397" d="M49 1280q0 119 61.5 213t161.5 94v-57q-96 0 -141 -117q33 16 68 17q61 0 105 -44.5t44 -105.5t-44 -105.5t-105.5 -44.5t-105.5 44.5t-44 105.5z" />
<glyph unicode="&#x2019;" horiz-adv-x="397" d="M49 1439.5q0 61.5 44 105.5t105.5 44t105.5 -44t44 -105q0 -119 -61.5 -213t-161.5 -94v57q96 0 141 117q-33 -16 -67 -17q-61 0 -105.5 44t-44.5 105.5z" />
<glyph unicode="&#x201a;" horiz-adv-x="399" d="M49 149.5q0 61.5 44 105.5t105.5 44t106.5 -48.5t45 -109.5q0 -119 -61.5 -209t-163.5 -90v58q94 0 143 116q-33 -16 -67 -16q-61 0 -106.5 44t-45.5 105.5z" />
<glyph unicode="&#x201c;" horiz-adv-x="663" d="M49 1280q0 119 61.5 213t161.5 94v-57q-96 0 -141 -117q33 16 68 17q82 0 125 -68q16 94 75.5 159.5t139.5 65.5v-57q-96 0 -142 -117q33 16 68 17q61 0 105 -44.5t44 -105.5t-44 -105.5t-105 -44.5q-92 0 -133 82q-41 -82 -133 -82q-61 0 -105.5 44.5t-44.5 105.5z" />
<glyph unicode="&#x201d;" horiz-adv-x="663" d="M49 1439.5q0 61.5 44 105.5t106 44q92 0 133 -82q41 82 133 82q61 0 105 -44t44 -105q0 -119 -61 -213t-162 -94v57q96 0 141 117q-33 -16 -67 -17q-82 0 -125 68q-18 -96 -76.5 -160.5t-138.5 -64.5v57q96 0 141 117q-33 -16 -67 -17q-61 0 -105.5 44t-44.5 105.5z" />
<glyph unicode="&#x201e;" horiz-adv-x="663" d="M49 149.5q0 61.5 44 105.5t106 44q92 0 133 -82q41 82 133 82q61 0 105 -48.5t44 -109.5q0 -119 -61 -209t-162 -90v58q96 0 141 116q-33 -16 -67 -16q-82 0 -125 68q-18 -96 -76.5 -161t-138.5 -65v58q96 0 141 116q-33 -16 -67 -16q-61 0 -105.5 44t-44.5 105.5z" />
<glyph unicode="&#x2022;" horiz-adv-x="598" d="M49 700.5q0 102.5 74 176t176 73.5t176 -73.5t74 -176t-74 -176t-176 -73.5t-176 73.5t-74 176z" />
<glyph unicode="&#x2026;" horiz-adv-x="1093" d="M49 149.5q0 61.5 44 105.5t105.5 44t105.5 -44t44 -105.5t-44 -105.5t-105.5 -44t-105.5 44t-44 105.5zM397 149.5q0 61.5 44 105.5t105.5 44t105.5 -44t44 -105.5t-44 -105.5t-105.5 -44t-105.5 44t-44 105.5zM745 149.5q0 61.5 44.5 105.5t105.5 44t105 -44t44 -105.5 t-44 -105.5t-105 -44t-105.5 44t-44.5 105.5z" />
<glyph unicode="&#x202f;" horiz-adv-x="370" />
<glyph unicode="&#x2039;" horiz-adv-x="499" d="M49 715l322 321l80 -80l-242 -241l242 -242l-80 -80z" />
<glyph unicode="&#x203a;" horiz-adv-x="499" d="M49 473l242 242l-242 241l80 80l322 -321l-322 -322z" />
<glyph unicode="&#x205f;" horiz-adv-x="462" />
<glyph unicode="&#x20ac;" horiz-adv-x="1484" d="M49 676l35 57h109q0 4 -1.5 15.5t-1.5 17.5q0 25 5 78h-136l33 55h111q49 291 268 467t494 176q223 0 409 -117v123h56v-448h-56v258q-182 129 -387 129q-164 0 -264 -101q-66 -66 -87.5 -138t-21.5 -185q0 -27 1 -82t1 -82h820l-35 -55h-785v-111h717l-33 -57h-684v-279 q0 -137 101.5 -239.5t238.5 -102.5q242 0 418 189v231h56v-446h-56v135q-178 -164 -422 -164q-270 0 -493 193.5t-260 482.5h-150z" />
<glyph unicode="&#x2122;" horiz-adv-x="806" d="M49 1464v111h291v-113h-37v76h-59v-303h39v-37h-177v37h41v303h-61v-74h-37zM373 1198v37h41v303h-41v37h137l82 -213l84 213h63v-37h-30v-303h49v-37h-125v37h37v225l-64 -164h-28l-70 181v-242h41v-37h-176z" />
<glyph unicode="&#x25fc;" horiz-adv-x="1126" d="M0 0v1126h1126v-1126h-1126z" />
<glyph unicode="&#xfb01;" horiz-adv-x="1167" d="M49 1071v57h115v129q0 119 85 203t204 84q100 0 182 -65q51 66 133 65q70 0 119 -50t49 -119.5t-49 -119t-119 -49.5t-119 49.5t-49 118.5q0 31 8 53q-53 49 -127 60v-359h195q119 0 204 -85t85 -203v-783q86 10 144 76t58 154v35h58v-35q0 -119 -85 -203t-204 -84 t-203 84t-84 203v784h-168v-1071h-317v1071h-115z" />
<glyph unicode="&#xfb02;" horiz-adv-x="1222" d="M49 1071v57h115v129q0 119 85 203t204 84h276q119 0 204 -84t85 -203v-1200q86 10 144.5 76t58.5 154v35h59v-35q0 -119 -85 -203t-204 -84t-202.5 84t-83.5 203v1200h-224v-359h154v-57h-154v-1071h-317v1071h-115z" />
</font>
</defs>
</svg>
